<?xml version="1.0" ?><svg height="58px" version="1.1" viewBox="0 0 58 58" width="58px" xmlns="http://www.w3.org/2000/svg" xmlns:xlink="http://www.w3.org/1999/xlink"><title/><desc/><defs/><g fill="none" fill-rule="evenodd" id="Page-1" stroke="none" stroke-width="1"><g fill-rule="nonzero" id="005---Skip-Forward"><ellipse cx="29" cy="29" fill="#F3D55B" id="Oval" rx="29" ry="28.875"/><path d="M29,54.875 C14.7258624,54.8062083 3.20367241,43.1910968 3.24953355,28.9168671 C3.29539468,14.6426374 14.8919815,3.1018034 29.1662665,3.12473387 C43.4405514,3.14766433 54.9999997,14.7256966 55,29 C54.9492389,43.3181062 43.3181845,54.893242 29,54.875 Z M29,5.125 C15.8304243,5.19376862 5.20363798,15.9134441 5.24948467,29.0831195 C5.29533136,42.2527949 15.9964946,52.898223 29.1662298,52.8752983 C42.3359651,52.8523737 53.0000025,42.1697552 53,29 C52.950323,15.7860145 42.2140648,5.10567421 29,5.125 Z" fill="#E57E25" id="Shape"/><path d="M26,31.95 L18.09,37.43 C17.8757803,37.5754048 17.598675,37.5902895 17.370112,37.4686688 C17.141549,37.3470481 16.9990824,37.108905 17,36.85 L17,21.15 C16.9990824,20.891095 17.141549,20.6529519 17.370112,20.5313312 C17.598675,20.4097105 17.8757803,20.4245952 18.09,20.57 L26,26.05" fill="#D25627" id="Shape"/><path d="M37,30.56 L27.09,37.43 C26.8757803,37.5754048 26.598675,37.5902895 26.370112,37.4686688 C26.141549,37.3470481 25.9990824,37.108905 26,36.85 L26,21.15 C25.9990824,20.891095 26.141549,20.6529519 26.370112,20.5313312 C26.598675,20.4097105 26.8757803,20.4245952 27.09,20.57 L37,27.44" fill="#E57E25" id="Shape"/><rect fill="#F29C1F" height="16" id="Rectangle-path" rx="1" width="4" x="37" y="21"/></g></g></svg>