<?xml version="1.0" ?><svg height="58px" version="1.1" viewBox="0 0 58 58" width="58px" xmlns="http://www.w3.org/2000/svg" xmlns:xlink="http://www.w3.org/1999/xlink"><title/><desc/><defs/><g fill="none" fill-rule="evenodd" id="Page-1" stroke="none" stroke-width="1"><g fill-rule="nonzero" id="006---Skip-Backward"><ellipse cx="29" cy="29" fill="#F3D55B" id="Oval" rx="29" ry="28.875"/><path d="M29,54.875 C14.7258624,54.8062083 3.20367241,43.1910968 3.24953355,28.9168671 C3.29539468,14.6426374 14.8919815,3.1018034 29.1662665,3.12473387 C43.4405514,3.14766433 54.9999997,14.7256966 55,29 C54.9494092,43.3181773 43.3182549,54.8934126 29,54.875 Z M29,5.125 C15.8304243,5.19376862 5.20363798,15.9134441 5.24948467,29.0831195 C5.29533136,42.2527949 15.9964946,52.898223 29.1662298,52.8752983 C42.3359651,52.8523737 53.0000025,42.1697552 53,29 C52.950323,15.7860145 42.2140648,5.10567421 29,5.125 Z" fill="#E57E25" id="Shape"/><path d="M32,26.05 L39.91,20.57 C40.1242197,20.4245952 40.401325,20.4097105 40.629888,20.5313312 C40.858451,20.6529519 41.0009176,20.891095 41,21.15 L41,36.85 C41.0009176,37.108905 40.858451,37.3470481 40.629888,37.4686688 C40.401325,37.5902895 40.1242197,37.5754048 39.91,37.43 L32,31.95" fill="#D25627" id="Shape"/><path d="M21,27.44 L30.91,20.57 C31.1242197,20.4245952 31.401325,20.4097105 31.629888,20.5313312 C31.858451,20.6529519 32.0009176,20.891095 32,21.15 L32,36.85 C32.0009176,37.108905 31.858451,37.3470481 31.629888,37.4686688 C31.401325,37.5902895 31.1242197,37.5754048 30.91,37.43 L21,30.56" fill="#E57E25" id="Shape"/><rect fill="#F29C1F" height="16" id="Rectangle-path" rx="1" transform="translate(19.000000, 29.000000) rotate(-180.000000) translate(-19.000000, -29.000000) " width="4" x="17" y="21"/></g></g></svg>