<svg id="Layer" enable-background="new 0 0 64 64" height="512" viewBox="0 0 64 64" width="512" xmlns="http://www.w3.org/2000/svg"><path d="m32 8c-13.233 0-24 10.766-24 24s10.767 24 24 24 24-10.766 24-24-10.767-24-24-24zm0 44c-11.028 0-20-8.972-20-20s8.972-20 20-20 20 8.972 20 20-8.972 20-20 20z"/><path d="m25.316 31.428c.688-.426 1.052-1.224.921-2.022-.13-.798-.729-1.44-1.516-1.625l-.588-.138c1.558-2.807 4.555-4.643 7.867-4.643 2.862 0 5.485 1.312 7.199 3.599.662.883 1.915 1.064 2.8.401.884-.662 1.063-1.916.401-2.8-2.439-3.256-6.327-5.2-10.4-5.2-5.163 0-9.801 3.091-11.861 7.702l-1.259-.296c-.784-.187-1.608.122-2.081.778-.473.657-.503 1.533-.077 2.221l2.233 3.607c.378.611 1.032.948 1.702.948.359 0 .723-.097 1.051-.3z"/><path d="m42.636 30.281-3.827 1.831c-.729.349-1.177 1.103-1.134 1.911s.568 1.51 1.331 1.779l.974.344c-1.522 2.925-4.585 4.854-7.98 4.854-2.862 0-5.485-1.312-7.199-3.599-.661-.883-1.915-1.065-2.8-.401-.884.662-1.063 1.916-.401 2.8 2.439 3.256 6.327 5.2 10.4 5.2 5.093 0 9.68-3.005 11.781-7.513l.883.312c.218.077.443.114.666.114.558 0 1.102-.233 1.487-.664.541-.602.666-1.47.316-2.2l-1.831-3.828c-.476-.995-1.673-1.416-2.666-.94z"/></svg>