<svg id="Layer" enable-background="new 0 0 64 64" height="512" viewBox="0 0 64 64" width="512" xmlns="http://www.w3.org/2000/svg"><path d="m21.41 29.06-2.99-.71 2.24 3.61 3.6-2.23zm21.18 5.89 2.74.96-1.83-3.82-3.83 1.83zm-10.59-24.95c12.15 0 22 9.85 22 22s-9.85 22-22 22-22-9.85-22-22 9.85-22 22-22z" fill="#4dd0e1"/><g fill="#012e52"><path d="m32 8c-13.233 0-24 10.766-24 24s10.767 24 24 24 24-10.766 24-24-10.767-24-24-24zm0 44c-11.028 0-20-8.972-20-20s8.972-20 20-20 20 8.972 20 20-8.972 20-20 20z"/><path d="m25.313 31.43c.688-.426 1.051-1.224.92-2.022-.13-.798-.729-1.439-1.516-1.625l-.586-.138c1.558-2.808 4.556-4.645 7.869-4.645 2.862 0 5.485 1.312 7.199 3.599.662.883 1.915 1.064 2.8.401.884-.662 1.063-1.916.401-2.8-2.439-3.256-6.327-5.2-10.4-5.2-5.163 0-9.8 3.091-11.86 7.701l-1.258-.297c-.788-.188-1.61.12-2.085.777-.474.657-.504 1.535-.076 2.224l2.24 3.61c.379.61 1.032.946 1.701.946.359 0 .724-.097 1.052-.3z"/><path d="m42.638 30.285-3.83 1.83c-.73.349-1.178 1.103-1.135 1.911s.568 1.51 1.332 1.78l.973.342c-1.522 2.924-4.584 4.852-7.978 4.852-2.862 0-5.485-1.312-7.199-3.599-.661-.883-1.915-1.065-2.8-.401-.884.662-1.063 1.916-.401 2.8 2.439 3.256 6.327 5.2 10.4 5.2 5.094 0 9.681-3.006 11.781-7.514l.888.312c.217.076.439.112.661.112.559 0 1.104-.234 1.489-.666.54-.602.664-1.47.314-2.199l-1.83-3.82c-.477-.995-1.671-1.416-2.665-.94z"/></g></svg>