<svg id="Layer_1" height="512" viewBox="0 0 128 128" width="512" xmlns="http://www.w3.org/2000/svg" xmlns:xlink="http://www.w3.org/1999/xlink" data-name="Layer 1"><linearGradient id="linear-gradient" gradientUnits="userSpaceOnUse" x1="120.845" x2="18.718" y1="120.844" y2="18.718"><stop offset="0" stop-color="#30ade0"/><stop offset="1" stop-color="#85c646"/></linearGradient><path d="m120.845 109.229-8.664-8.663a1.75 1.75 0 0 0 -2.475 2.475l8.664 8.663a4.714 4.714 0 0 1 -6.666 6.666l-21.277-21.278 6.665-6.665 7.154 7.154a1.75 1.75 0 0 0 2.475-2.475l-8.392-8.392a1.751 1.751 0 0 0 -2.475 0l-1.212 1.213-5.31-5.309a47.681 47.681 0 0 0 -62.051-70.7 1.75 1.75 0 0 0 1.85 2.972 44.233 44.233 0 1 1 -6.9 5.3 1.75 1.75 0 1 0 -2.392-2.554 47.675 47.675 0 0 0 62.78 71.7l5.31 5.31-1.212 1.212a1.749 1.749 0 0 0 0 2.475l22.514 22.516a8.214 8.214 0 0 0 11.616-11.616zm-35.605-22.224q.906-.859 1.765-1.765l5.162 5.16-1.767 1.767zm-7.73-63.349a1.75 1.75 0 0 1 2.3-2.638c1.05.917 2.067 1.9 3.021 2.913a1.751 1.751 0 0 1 -2.553 2.4c-.873-.931-1.804-1.831-2.768-2.675zm-63.26 28.782a38.189 38.189 0 1 0 69.879-21.287 1.75 1.75 0 0 1 2.9-1.956 41.7 41.7 0 1 1 -12.842-12.31 1.75 1.75 0 1 1 -1.832 2.983 38.173 38.173 0 0 0 -58.105 32.57z" fill="url(#linear-gradient)"/></svg>